<svg xmlns="http://www.w3.org/2000/svg" viewBox="0 0 460 250" width="460" height="250" font-family="Microsoft YaHei, SimHei, sans-serif">
  <rect width="460" height="250" fill="#ffffff"/>
  <text x="230" y="26" text-anchor="middle" font-size="15" fill="#1f2328">① RC 低通滤波电路（R=1kΩ, C=100nF）</text>
  <circle cx="70" cy="130" r="20" fill="#e7f5ff" stroke="#1f2328" stroke-width="2"/>
  <path d="M 61 130 q 4.5 -9 9 0 q 4.5 9 9 0" fill="none" stroke="#1f2328" stroke-width="1.6"/>
  <text x="44" y="135" font-size="12.5" fill="#1f2328" text-anchor="end">Vi</text>
  <line x1="70" y1="110" x2="70" y2="70" stroke="#1f2328" stroke-width="2" stroke-linecap="round"/>
  <line x1="70" y1="150" x2="70" y2="190" stroke="#1f2328" stroke-width="2" stroke-linecap="round"/>
  <line x1="70" y1="70" x2="140" y2="70" stroke="#1f2328" stroke-width="2" stroke-linecap="round"/>
  <rect x="141" y="58" width="68" height="24" fill="#fff3cd" stroke="#1f2328" stroke-width="2"/>
  <text x="175" y="50" font-size="12.5" fill="#1f2328" text-anchor="middle">R = 1kΩ</text>
  <line x1="210" y1="70" x2="400" y2="70" stroke="#1f2328" stroke-width="2" stroke-linecap="round"/>
  <circle cx="300" cy="70" r="4" fill="#0969da"/>
  <line x1="300" y1="70" x2="300" y2="105" stroke="#1f2328" stroke-width="2" stroke-linecap="round"/>
  <line x1="278" y1="112" x2="322" y2="112" stroke="#1f2328" stroke-width="2.6"/>
  <line x1="278" y1="124" x2="322" y2="124" stroke="#1f2328" stroke-width="2.6"/>
  <text x="330" y="122" font-size="12.5" fill="#1f2328" text-anchor="start">C = 100nF</text>
  <line x1="300" y1="131" x2="300" y2="190" stroke="#1f2328" stroke-width="2" stroke-linecap="round"/>
  <line x1="70" y1="190" x2="400" y2="190" stroke="#1f2328" stroke-width="2" stroke-linecap="round"/>
  <line x1="200" y1="190" x2="200" y2="198" stroke="#1f2328" stroke-width="2" stroke-linecap="round"/>
  <line x1="184" y1="198" x2="216" y2="198" stroke="#1f2328" stroke-width="2.6"/>
  <line x1="190" y1="204" x2="210" y2="204" stroke="#1f2328" stroke-width="2.2"/>
  <line x1="196" y1="210" x2="204" y2="210" stroke="#1f2328" stroke-width="1.8"/>
  <circle cx="400" cy="70" r="3.2" fill="#1f2328"/>
  <text x="410" y="75" font-size="12.5" fill="#0969da" text-anchor="start">Vo</text>
  <circle cx="400" cy="190" r="3.2" fill="#1f2328"/>
  <text x="390" y="195" font-size="12.5" fill="#0969da" text-anchor="end">GND</text>
</svg>
